<svg width="685" height="460" viewBox="0 0 685 460" fill="none" xmlns="http://www.w3.org/2000/svg">
<path d="M339.372 263.537C331.867 286.634 317.243 306.762 297.595 321.037C277.948 335.312 254.286 343 230 343C205.714 343 182.052 335.312 162.405 321.037C142.757 306.762 128.133 286.634 120.629 263.537" stroke="#3ACD6B" stroke-width="30"/>
<path d="M120.628 192.463C128.133 169.366 142.757 149.238 162.405 134.963C182.052 120.688 205.714 113 230 113C254.286 113 277.948 120.688 297.595 134.963C317.243 149.238 331.867 169.366 339.371 192.463" stroke="#3ACD6B" stroke-width="30"/>
<path d="M401.707 100.61C374.382 64.3489 336.28 37.6692 292.86 24.3945C249.44 11.1198 202.933 11.9316 160.003 26.7135C117.073 41.4955 79.9247 69.4887 53.8823 106.681C27.8399 143.873 14.2403 188.356 15.0327 233.752C15.8251 279.149 30.9688 323.129 58.2934 359.39C85.6179 395.651 123.72 422.331 167.14 435.605C210.56 448.88 257.067 448.068 299.997 433.286C342.927 418.505 380.075 390.511 406.118 353.319" stroke="#1F7037" stroke-width="30"/>
<path d="M385.558 172.235C371.804 135.435 345.371 104.749 311.012 85.6979C276.653 66.6468 236.624 60.4805 198.125 68.3082C159.626 76.1358 125.183 97.4436 100.991 128.399C76.7998 159.355 64.4475 197.926 66.1561 237.176" stroke="#222979" stroke-width="30"/>
<path d="M76.4184 287.702C90.1575 324.508 116.579 355.205 150.93 374.27C185.281 393.335 225.307 399.517 263.81 391.705C302.312 383.893 336.764 362.599 360.968 331.653C385.172 300.707 397.54 262.141 395.847 222.89" stroke="#222979" stroke-width="30"/>
<path d="M51 232H107.753H161" stroke="#222979" stroke-width="30"/>
<path d="M411 230L354.247 230L301 230" stroke="#222979" stroke-width="30"/>
<path d="M453.76 181.84C447 181.84 441.84 179.96 438.28 176.2C434.76 172.44 433 167.1 433 160.18C433 156.74 433.54 153.68 434.62 151C435.7 148.28 437.18 146 439.06 144.16C440.94 142.28 443.18 140.86 445.78 139.9C448.38 138.94 451.2 138.46 454.24 138.46C456 138.46 457.6 138.6 459.04 138.88C460.48 139.12 461.74 139.42 462.82 139.78C463.9 140.1 464.8 140.44 465.52 140.8C466.24 141.16 466.76 141.44 467.08 141.64L464.38 149.2C463.1 148.52 461.6 147.94 459.88 147.46C458.2 146.98 456.28 146.74 454.12 146.74C452.68 146.74 451.26 146.98 449.86 147.46C448.5 147.94 447.28 148.72 446.2 149.8C445.16 150.84 444.32 152.2 443.68 153.88C443.04 155.56 442.72 157.6 442.72 160C442.72 161.92 442.92 163.72 443.32 165.4C443.76 167.04 444.44 168.46 445.36 169.66C446.32 170.86 447.56 171.82 449.08 172.54C450.6 173.22 452.44 173.56 454.6 173.56C455.96 173.56 457.18 173.48 458.26 173.32C459.34 173.16 460.3 172.98 461.14 172.78C461.98 172.54 462.72 172.28 463.36 172C464 171.72 464.58 171.46 465.1 171.22L467.68 178.72C466.36 179.52 464.5 180.24 462.1 180.88C459.7 181.52 456.92 181.84 453.76 181.84ZM453.76 319.84C447 319.84 441.84 317.96 438.28 314.2C434.76 310.44 433 305.1 433 298.18C433 294.74 433.54 291.68 434.62 289C435.7 286.28 437.18 284 439.06 282.16C440.94 280.28 443.18 278.86 445.78 277.9C448.38 276.94 451.2 276.46 454.24 276.46C456 276.46 457.6 276.6 459.04 276.88C460.48 277.12 461.74 277.42 462.82 277.78C463.9 278.1 464.8 278.44 465.52 278.8C466.24 279.16 466.76 279.44 467.08 279.64L464.38 287.2C463.1 286.52 461.6 285.94 459.88 285.46C458.2 284.98 456.28 284.74 454.12 284.74C452.68 284.74 451.26 284.98 449.86 285.46C448.5 285.94 447.28 286.72 446.2 287.8C445.16 288.84 444.32 290.2 443.68 291.88C443.04 293.56 442.72 295.6 442.72 298C442.72 299.92 442.92 301.72 443.32 303.4C443.76 305.04 444.44 306.46 445.36 307.66C446.32 308.86 447.56 309.82 449.08 310.54C450.6 311.22 452.44 311.56 454.6 311.56C455.96 311.56 457.18 311.48 458.26 311.32C459.34 311.16 460.3 310.98 461.14 310.78C461.98 310.54 462.72 310.28 463.36 310C464 309.72 464.58 309.46 465.1 309.22L467.68 316.72C466.36 317.52 464.5 318.24 462.1 318.88C459.7 319.52 456.92 319.84 453.76 319.84Z" fill="#1F7037"/>
<path d="M470.046 186.82C470.486 187.02 471.046 187.2 471.726 187.36C472.446 187.56 473.146 187.66 473.826 187.66C476.026 187.66 477.746 187.16 478.986 186.16C480.226 185.2 481.346 183.62 482.346 181.42C479.826 176.62 477.466 171.54 475.266 166.18C473.106 160.78 471.306 155.32 469.866 149.8H475.866C476.306 151.6 476.826 153.54 477.426 155.62C478.066 157.7 478.766 159.84 479.526 162.04C480.286 164.24 481.106 166.44 481.986 168.64C482.866 170.84 483.786 172.96 484.746 175C486.266 170.8 487.586 166.64 488.706 162.52C489.826 158.4 490.886 154.16 491.886 149.8H497.646C496.206 155.68 494.606 161.34 492.846 166.78C491.086 172.18 489.186 177.24 487.146 181.96C486.346 183.76 485.506 185.3 484.626 186.58C483.786 187.9 482.846 188.98 481.806 189.82C480.766 190.66 479.586 191.28 478.266 191.68C476.986 192.08 475.526 192.28 473.886 192.28C473.446 192.28 472.986 192.24 472.506 192.16C472.026 192.12 471.546 192.04 471.066 191.92C470.626 191.84 470.206 191.74 469.806 191.62C469.446 191.5 469.186 191.4 469.026 191.32L470.046 186.82ZM509.11 151.18C509.79 150.74 510.81 150.28 512.17 149.8C513.57 149.32 515.17 149.08 516.97 149.08C519.21 149.08 521.19 149.48 522.91 150.28C524.67 151.08 526.15 152.2 527.35 153.64C528.55 155.08 529.45 156.8 530.05 158.8C530.69 160.8 531.01 163 531.01 165.4C531.01 167.92 530.63 170.2 529.87 172.24C529.15 174.24 528.11 175.94 526.75 177.34C525.39 178.74 523.75 179.82 521.83 180.58C519.91 181.34 517.75 181.72 515.35 181.72C512.75 181.72 510.45 181.54 508.45 181.18C506.45 180.82 504.81 180.46 503.53 180.1V135.4L509.11 134.44V151.18ZM509.11 176.14C509.67 176.3 510.45 176.46 511.45 176.62C512.49 176.74 513.77 176.8 515.29 176.8C518.29 176.8 520.69 175.82 522.49 173.86C524.29 171.86 525.19 169.04 525.19 165.4C525.19 163.8 525.03 162.3 524.71 160.9C524.39 159.5 523.87 158.3 523.15 157.3C522.43 156.26 521.49 155.46 520.33 154.9C519.21 154.3 517.85 154 516.25 154C514.73 154 513.33 154.26 512.05 154.78C510.77 155.3 509.79 155.84 509.11 156.4V176.14ZM537.123 165.46C537.123 162.7 537.523 160.3 538.323 158.26C539.123 156.18 540.183 154.46 541.503 153.1C542.823 151.74 544.343 150.72 546.063 150.04C547.783 149.36 549.543 149.02 551.343 149.02C555.543 149.02 558.763 150.34 561.003 152.98C563.243 155.58 564.362 159.56 564.362 164.92C564.362 165.16 564.362 165.48 564.362 165.88C564.362 166.24 564.342 166.58 564.303 166.9H542.943C543.183 170.14 544.123 172.6 545.763 174.28C547.403 175.96 549.963 176.8 553.443 176.8C555.403 176.8 557.043 176.64 558.363 176.32C559.723 175.96 560.743 175.62 561.423 175.3L562.203 179.98C561.523 180.34 560.323 180.72 558.603 181.12C556.923 181.52 555.003 181.72 552.843 181.72C550.123 181.72 547.763 181.32 545.763 180.52C543.803 179.68 542.183 178.54 540.903 177.1C539.623 175.66 538.663 173.96 538.022 172C537.423 170 537.123 167.82 537.123 165.46ZM558.543 162.4C558.583 159.88 557.943 157.82 556.623 156.22C555.343 154.58 553.563 153.76 551.283 153.76C550.003 153.76 548.863 154.02 547.863 154.54C546.903 155.02 546.083 155.66 545.403 156.46C544.723 157.26 544.183 158.18 543.783 159.22C543.423 160.26 543.183 161.32 543.063 162.4H558.543ZM583.898 149.14C584.378 149.14 584.918 149.18 585.518 149.26C586.158 149.3 586.778 149.38 587.378 149.5C587.978 149.58 588.518 149.68 588.998 149.8C589.518 149.88 589.898 149.96 590.138 150.04L589.178 154.9C588.738 154.74 587.998 154.56 586.958 154.36C585.958 154.12 584.658 154 583.058 154C582.018 154 580.978 154.12 579.938 154.36C578.938 154.56 578.278 154.7 577.958 154.78V181H572.378V151.12C573.698 150.64 575.338 150.2 577.298 149.8C579.258 149.36 581.458 149.14 583.898 149.14ZM467.982 234.46C467.982 231.7 468.382 229.3 469.182 227.26C469.982 225.18 471.042 223.46 472.362 222.1C473.682 220.74 475.202 219.72 476.922 219.04C478.642 218.36 480.402 218.02 482.202 218.02C486.402 218.02 489.622 219.34 491.862 221.98C494.102 224.58 495.222 228.56 495.222 233.92C495.222 234.16 495.222 234.48 495.222 234.88C495.222 235.24 495.202 235.58 495.162 235.9H473.802C474.042 239.14 474.982 241.6 476.622 243.28C478.262 244.96 480.822 245.8 484.302 245.8C486.262 245.8 487.902 245.64 489.222 245.32C490.582 244.96 491.602 244.62 492.282 244.3L493.062 248.98C492.382 249.34 491.182 249.72 489.462 250.12C487.782 250.52 485.862 250.72 483.702 250.72C480.982 250.72 478.622 250.32 476.622 249.52C474.662 248.68 473.042 247.54 471.762 246.1C470.482 244.66 469.522 242.96 468.882 241C468.282 239 467.982 236.82 467.982 234.46ZM489.402 231.4C489.442 228.88 488.802 226.82 487.482 225.22C486.202 223.58 484.422 222.76 482.142 222.76C480.862 222.76 479.722 223.02 478.722 223.54C477.762 224.02 476.942 224.66 476.262 225.46C475.582 226.26 475.042 227.18 474.642 228.22C474.282 229.26 474.042 230.32 473.922 231.4H489.402ZM516.798 250.72C514.278 250.72 512.058 250.32 510.138 249.52C508.258 248.72 506.658 247.6 505.338 246.16C504.058 244.72 503.098 243.02 502.458 241.06C501.818 239.06 501.498 236.86 501.498 234.46C501.498 232.06 501.838 229.86 502.518 227.86C503.238 225.86 504.238 224.14 505.518 222.7C506.798 221.22 508.358 220.08 510.198 219.28C512.078 218.44 514.158 218.02 516.438 218.02C517.838 218.02 519.238 218.14 520.638 218.38C522.038 218.62 523.378 219 524.658 219.52L523.398 224.26C522.558 223.86 521.578 223.54 520.458 223.3C519.378 223.06 518.218 222.94 516.978 222.94C513.858 222.94 511.458 223.92 509.778 225.88C508.138 227.84 507.318 230.7 507.318 234.46C507.318 236.14 507.498 237.68 507.858 239.08C508.258 240.48 508.858 241.68 509.658 242.68C510.498 243.68 511.558 244.46 512.838 245.02C514.118 245.54 515.678 245.8 517.518 245.8C518.998 245.8 520.338 245.66 521.538 245.38C522.738 245.1 523.678 244.8 524.358 244.48L525.138 249.16C524.818 249.36 524.358 249.56 523.758 249.76C523.158 249.92 522.478 250.06 521.718 250.18C520.958 250.34 520.138 250.46 519.258 250.54C518.418 250.66 517.598 250.72 516.798 250.72ZM555.968 249.1C554.688 249.42 552.988 249.76 550.868 250.12C548.788 250.48 546.368 250.66 543.608 250.66C541.208 250.66 539.188 250.32 537.548 249.64C535.908 248.92 534.588 247.92 533.588 246.64C532.588 245.36 531.868 243.86 531.428 242.14C530.988 240.38 530.768 238.44 530.768 236.32V218.8H536.348V235.12C536.348 238.92 536.948 241.64 538.148 243.28C539.348 244.92 541.368 245.74 544.208 245.74C544.808 245.74 545.428 245.72 546.068 245.68C546.708 245.64 547.308 245.6 547.868 245.56C548.428 245.48 548.928 245.42 549.368 245.38C549.848 245.3 550.188 245.22 550.388 245.14V218.8H555.968V249.1ZM577.101 218.14C577.581 218.14 578.121 218.18 578.721 218.26C579.361 218.3 579.981 218.38 580.581 218.5C581.181 218.58 581.721 218.68 582.201 218.8C582.721 218.88 583.101 218.96 583.341 219.04L582.381 223.9C581.941 223.74 581.201 223.56 580.161 223.36C579.161 223.12 577.861 223 576.261 223C575.221 223 574.181 223.12 573.141 223.36C572.141 223.56 571.481 223.7 571.161 223.78V250H565.581V220.12C566.901 219.64 568.541 219.2 570.501 218.8C572.461 218.36 574.661 218.14 577.101 218.14ZM594.306 250H588.726V218.8H594.306V250ZM591.486 213.16C590.486 213.16 589.626 212.84 588.906 212.2C588.226 211.52 587.886 210.62 587.886 209.5C587.886 208.38 588.226 207.5 588.906 206.86C589.626 206.18 590.486 205.84 591.486 205.84C592.486 205.84 593.326 206.18 594.006 206.86C594.726 207.5 595.086 208.38 595.086 209.5C595.086 210.62 594.726 211.52 594.006 212.2C593.326 212.84 592.486 213.16 591.486 213.16ZM609.122 218.8H620.942V223.48H609.122V237.88C609.122 239.44 609.242 240.74 609.482 241.78C609.722 242.78 610.082 243.58 610.562 244.18C611.042 244.74 611.642 245.14 612.362 245.38C613.082 245.62 613.922 245.74 614.882 245.74C616.562 245.74 617.902 245.56 618.902 245.2C619.942 244.8 620.662 244.52 621.062 244.36L622.142 248.98C621.582 249.26 620.602 249.6 619.202 250C617.802 250.44 616.202 250.66 614.402 250.66C612.282 250.66 610.522 250.4 609.122 249.88C607.762 249.32 606.662 248.5 605.822 247.42C604.982 246.34 604.382 245.02 604.022 243.46C603.702 241.86 603.542 240.02 603.542 237.94V210.1L609.122 209.14V218.8ZM624.382 255.82C624.822 256.02 625.382 256.2 626.062 256.36C626.782 256.56 627.482 256.66 628.162 256.66C630.362 256.66 632.082 256.16 633.322 255.16C634.562 254.2 635.682 252.62 636.682 250.42C634.162 245.62 631.802 240.54 629.602 235.18C627.442 229.78 625.642 224.32 624.202 218.8H630.202C630.642 220.6 631.162 222.54 631.762 224.62C632.402 226.7 633.102 228.84 633.862 231.04C634.622 233.24 635.442 235.44 636.322 237.64C637.202 239.84 638.122 241.96 639.082 244C640.602 239.8 641.922 235.64 643.042 231.52C644.162 227.4 645.222 223.16 646.222 218.8H651.982C650.542 224.68 648.942 230.34 647.182 235.78C645.422 241.18 643.522 246.24 641.482 250.96C640.682 252.76 639.842 254.3 638.962 255.58C638.122 256.9 637.182 257.98 636.142 258.82C635.102 259.66 633.922 260.28 632.602 260.68C631.322 261.08 629.862 261.28 628.222 261.28C627.782 261.28 627.322 261.24 626.842 261.16C626.362 261.12 625.882 261.04 625.402 260.92C624.962 260.84 624.542 260.74 624.142 260.62C623.782 260.5 623.522 260.4 623.362 260.32L624.382 255.82ZM483.066 319.6C479.626 319.52 477.186 318.78 475.746 317.38C474.306 315.98 473.586 313.8 473.586 310.84V273.4L479.166 272.44V309.94C479.166 310.86 479.246 311.62 479.406 312.22C479.566 312.82 479.826 313.3 480.186 313.66C480.546 314.02 481.026 314.3 481.626 314.5C482.226 314.66 482.966 314.8 483.846 314.92L483.066 319.6ZM514.953 318.1C513.673 318.42 511.973 318.76 509.853 319.12C507.773 319.48 505.353 319.66 502.593 319.66C500.193 319.66 498.173 319.32 496.533 318.64C494.893 317.92 493.573 316.92 492.573 315.64C491.573 314.36 490.853 312.86 490.413 311.14C489.973 309.38 489.753 307.44 489.753 305.32V287.8H495.333V304.12C495.333 307.92 495.933 310.64 497.133 312.28C498.333 313.92 500.353 314.74 503.193 314.74C503.793 314.74 504.413 314.72 505.053 314.68C505.693 314.64 506.293 314.6 506.853 314.56C507.413 314.48 507.913 314.42 508.353 314.38C508.833 314.3 509.173 314.22 509.373 314.14V287.8H514.953V318.1ZM530.146 289.18C530.826 288.74 531.846 288.28 533.206 287.8C534.606 287.32 536.206 287.08 538.006 287.08C540.246 287.08 542.226 287.48 543.946 288.28C545.706 289.08 547.186 290.2 548.386 291.64C549.586 293.08 550.486 294.8 551.086 296.8C551.726 298.8 552.046 301 552.046 303.4C552.046 305.92 551.666 308.2 550.906 310.24C550.186 312.24 549.146 313.94 547.786 315.34C546.426 316.74 544.786 317.82 542.866 318.58C540.946 319.34 538.786 319.72 536.386 319.72C533.786 319.72 531.486 319.54 529.486 319.18C527.486 318.82 525.846 318.46 524.566 318.1V273.4L530.146 272.44V289.18ZM530.146 314.14C530.706 314.3 531.486 314.46 532.486 314.62C533.526 314.74 534.806 314.8 536.326 314.8C539.326 314.8 541.726 313.82 543.526 311.86C545.326 309.86 546.226 307.04 546.226 303.4C546.226 301.8 546.066 300.3 545.746 298.9C545.426 297.5 544.906 296.3 544.186 295.3C543.466 294.26 542.526 293.46 541.366 292.9C540.246 292.3 538.886 292 537.286 292C535.766 292 534.366 292.26 533.086 292.78C531.806 293.3 530.826 293.84 530.146 294.4V314.14Z" fill="black"/>
<path d="M446.14 242.86C447.46 242.86 448.54 242.76 449.38 242.56C450.26 242.32 450.96 242.02 451.48 241.66C452 241.26 452.36 240.8 452.56 240.28C452.76 239.76 452.86 239.18 452.86 238.54C452.86 237.18 452.22 236.06 450.94 235.18C449.66 234.26 447.46 233.28 444.34 232.24C442.98 231.76 441.62 231.22 440.26 230.62C438.9 229.98 437.68 229.2 436.6 228.28C435.52 227.32 434.64 226.18 433.96 224.86C433.28 223.5 432.94 221.86 432.94 219.94C432.94 218.02 433.3 216.3 434.02 214.78C434.74 213.22 435.76 211.9 437.08 210.82C438.4 209.74 440 208.92 441.88 208.36C443.76 207.76 445.88 207.46 448.24 207.46C451.04 207.46 453.46 207.76 455.5 208.36C457.54 208.96 459.22 209.62 460.54 210.34L457.84 217.72C456.68 217.12 455.38 216.6 453.94 216.16C452.54 215.68 450.84 215.44 448.84 215.44C446.6 215.44 444.98 215.76 443.98 216.4C443.02 217 442.54 217.94 442.54 219.22C442.54 219.98 442.72 220.62 443.08 221.14C443.44 221.66 443.94 222.14 444.58 222.58C445.26 222.98 446.02 223.36 446.86 223.72C447.74 224.04 448.7 224.38 449.74 224.74C451.9 225.54 453.78 226.34 455.38 227.14C456.98 227.9 458.3 228.8 459.34 229.84C460.42 230.88 461.22 232.1 461.74 233.5C462.26 234.9 462.52 236.6 462.52 238.6C462.52 242.48 461.16 245.5 458.44 247.66C455.72 249.78 451.62 250.84 446.14 250.84C444.3 250.84 442.64 250.72 441.16 250.48C439.68 250.28 438.36 250.02 437.2 249.7C436.08 249.38 435.1 249.04 434.26 248.68C433.46 248.32 432.78 247.98 432.22 247.66L434.86 240.22C436.1 240.9 437.62 241.52 439.42 242.08C441.26 242.6 443.5 242.86 446.14 242.86Z" fill="#222979"/>
<path fill-rule="evenodd" clip-rule="evenodd" d="M229.807 169C250.69 182.215 269.557 188.467 285.748 186.989C288.576 244.087 267.454 277.807 230.023 291.88C193.877 278.708 172.497 246.439 174.082 186.123C193.09 187.116 211.737 183.014 229.807 169ZM215.528 225.508H216.968V222.177C216.968 218.488 218.425 215.126 220.772 212.683C223.137 210.221 226.403 208.692 230.001 208.692C233.599 208.692 236.867 210.221 239.231 212.683C241.578 215.126 243.034 218.488 243.034 222.177V225.508H244.475C245.644 225.508 246.602 226.463 246.602 227.631V250.065C246.602 251.233 245.644 252.188 244.475 252.188H215.528C214.358 252.188 213.401 251.233 213.401 250.065V227.631C213.4 226.463 214.358 225.508 215.528 225.508ZM228.255 240.286L225.961 246.286H234.04L231.915 240.204C233.264 239.511 234.186 238.107 234.186 236.488C234.186 234.18 232.312 232.309 230 232.309C227.688 232.309 225.815 234.18 225.815 236.488C225.815 238.173 226.815 239.625 228.255 240.286ZM220.995 225.508H239.007V222.177C239.007 219.554 237.984 217.178 236.336 215.462C234.706 213.765 232.464 212.711 230 212.711C227.538 212.711 225.294 213.765 223.666 215.462C222.017 217.178 220.995 219.554 220.995 222.177V225.508Z" fill="#17BDEE"/>
</svg>
